<?xml version="1.0" encoding="UTF-8" standalone="no"?>
<!-- Created with Inkscape (http://www.inkscape.org/) -->

<svg
   width="210mm"
   height="98mm"
   viewBox="0 0 210 98"
   version="1.1"
   id="svg1"
   inkscape:version="1.4 (86a8ad7, 2024-10-11)"
   sodipodi:docname="Logo_SiteWeb_NoText.svg"
   xmlns:inkscape="http://www.inkscape.org/namespaces/inkscape"
   xmlns:sodipodi="http://sodipodi.sourceforge.net/DTD/sodipodi-0.dtd"
   xmlns="http://www.w3.org/2000/svg"
   xmlns:svg="http://www.w3.org/2000/svg">
  <sodipodi:namedview
     id="namedview1"
     pagecolor="#ffffff"
     bordercolor="#000000"
     borderopacity="0.25"
     inkscape:showpageshadow="2"
     inkscape:pageopacity="0.0"
     inkscape:pagecheckerboard="0"
     inkscape:deskcolor="#d1d1d1"
     inkscape:document-units="mm"
     inkscape:zoom="0.71891835"
     inkscape:cx="304.6243"
     inkscape:cy="334.53034"
     inkscape:window-width="1920"
     inkscape:window-height="1009"
     inkscape:window-x="-8"
     inkscape:window-y="-8"
     inkscape:window-maximized="1"
     inkscape:current-layer="layer1" />
  <defs
     id="defs1" />
  <g
     inkscape:label="LogoBase"
     inkscape:groupmode="layer"
     id="layer1">
    <g
       id="g1"
       transform="matrix(2.1465204,0,0,2.1465204,-13.706631,-219.34843)">
      <path
         d="m 57.557753,132.78725 c -0.07403,-0.25961 -0.28012,-1.6692 -0.457833,-3.13245 -0.581773,-4.79023 -0.880988,-6.69395 -1.052131,-6.69395 -0.09274,0 -0.285874,0.44409 -0.429417,0.98691 -0.143562,0.54281 -0.509324,1.83561 -0.812857,2.87286 -0.825417,2.82071 -1.45501,3.00497 -1.766752,0.51705 -0.19968,-1.59363 -0.357438,-2.16587 -0.569651,-2.06635 -0.09639,0.0453 -0.502185,0.73975 -0.901874,1.5435 -0.889923,1.94596 -1.456527,1.13298 -2.391572,0.60558 l -2.31809,0.002 c -2.107312,0.002 -2.853999,-0.14881 -1.989762,-0.40064 0.654149,-0.19049 3.381472,-0.17924 5.182959,0.0404 0.301767,0.0369 0.399199,0.0348 0.763969,-0.6225 0.249585,-0.44982 0.627597,-1.2244 0.840024,-1.72126 0.828595,-1.9382 1.586337,-1.75237 2.012361,0.49351 l 0.273085,1.43972 0.271746,-0.77237 c 0.412733,-1.17312 1.128117,-3.605 1.288552,-4.38035 0.182135,-0.88018 0.437037,-1.18844 0.876833,-1.06034 0.435441,0.12682 0.453477,0.21553 1.201729,5.9127 0.337857,2.57246 0.676054,4.6772 0.751554,4.6772 0.07551,0 0.53985,-1.24959 1.031897,-2.77683 0.492043,-1.52728 1.036411,-2.88446 1.209693,-3.01598 0.565276,-0.42903 0.900427,0.11993 1.162529,1.90373 0.13647,0.92834 0.330849,1.85492 0.432138,2.05902 0.162791,0.3282 0.255769,0.257 0.803387,-0.61582 l 0.61923,-0.98693 4.457723,-0.0568 c 1.185405,-0.0151 0.792577,-0.0573 0.964555,0.29768 0.15943,0.32913 0.593529,0.16273 -0.04432,0.14533 -5.556265,-0.15158 -4.632956,0.10812 -5.428336,1.43914 -0.489961,0.82008 -0.766982,1.09242 -1.111206,1.09242 -0.574968,0 -0.806855,-0.3314 -1.140952,-1.63059 -0.145729,-0.56639 -0.318674,-1.14568 -0.384458,-1.28729 -0.158804,-0.34167 -1.0434,1.51534 -1.665736,3.49659 -0.270664,0.86174 -0.540287,1.70196 -0.599142,1.86717 -0.17333,0.48681 -0.926125,0.36718 -1.0799,-0.17158 z"
         style="display:inline;fill:#000000;stroke-width:1.58105"
         id="path1-2-7-3"
         sodipodi:nodetypes="sssccscsccssscscccsssscccccsssssccccss" />
      <path
         style="display:inline;fill:#859cbd;fill-opacity:1;stroke:none;stroke-width:1.39352;stroke-linejoin:round;stroke-dasharray:none"
         d="m 72.168805,130.76407 -4.369447,10.22432 -21.936596,0.0126 -14.912119,-16.20614 4.346553,-1.53666 11.717067,13.07104 17.98864,-0.21138 3.897872,-8.60315 z"
         id="path8-7-6-6" />
      <path
         style="display:inline;fill:#3d71c2;fill-opacity:1;stroke:none;stroke-width:1.39677;stroke-linejoin:round;stroke-dasharray:none"
         d="m 41.101173,138.38642 -4.334027,-12.22398 12.725442,-16.08595 19.546443,3.37332 -1.49053,4.54107 -15.585032,-2.94809 -10.300191,13.36823 3.518406,10.44791 z"
         id="path8-7-6-1" />
      <path
         style="display:inline;fill:#1f335b;fill-opacity:1;stroke:none;stroke-width:1.84918;stroke-linejoin:round;stroke-dasharray:none"
         d="m 42.126358,111.28828 17.788816,-5.45425 23.836988,14.8872 -4.482689,23.47584 -6.680411,-1.68612 3.952438,-18.72368 -19.803404,-12.04224 -15.208567,4.43916 z"
         id="path8-7-6-1-3" />
      <path
         style="display:inline;fill:#6d9df0;fill-opacity:1;stroke:none;stroke-width:1.55523;stroke-linejoin:round;stroke-dasharray:none"
         d="m 32.797953,134.9784 -5.946339,-11.45922 15.802862,-16.51478 25.168395,1.73318 -1.766306,4.49846 -20.075843,-1.63135 -12.780015,13.70318 4.844013,9.80874 z"
         id="path8-7-6" />
    </g>
  </g>
</svg>
